<svg width="64" height="64" viewBox="0 0 64 64" fill="none" xmlns="http://www.w3.org/2000/svg">
<rect x="10" y="10" width="44" height="44" fill="#FFC0A4"/>
<path d="M20.5 34H43.5C43.775 34 44 33.775 44 33.5V30.5C44 30.225 43.775 30 43.5 30H20.5C20.225 30 20 30.225 20 30.5V33.5C20 33.775 20.225 34 20.5 34Z" fill="#424B5A"/>
<path d="M55 7H9C7.89375 7 7 7.89375 7 9V55C7 56.1063 7.89375 57 9 57H55C56.1063 57 57 56.1063 57 55V9C57 7.89375 56.1063 7 55 7ZM52.5 52.5H11.5V11.5H52.5V52.5Z" fill="#424B5A"/>
</svg>
