<svg width="88" height="88" viewBox="0 0 88 88" fill="none" xmlns="http://www.w3.org/2000/svg">
<rect x="14" y="15" width="60" height="59" fill="#CFFF81"/>
<path d="M28.1875 46.75H41.25V59.8125C41.25 60.1906 41.5594 60.5 41.9375 60.5H46.0625C46.4406 60.5 46.75 60.1906 46.75 59.8125V46.75H59.8125C60.1906 46.75 60.5 46.4406 60.5 46.0625V41.9375C60.5 41.5594 60.1906 41.25 59.8125 41.25H46.75V28.1875C46.75 27.8094 46.4406 27.5 46.0625 27.5H41.9375C41.5594 27.5 41.25 27.8094 41.25 28.1875V41.25H28.1875C27.8094 41.25 27.5 41.5594 27.5 41.9375V46.0625C27.5 46.4406 27.8094 46.75 28.1875 46.75Z" fill="#505D68"/>
<path d="M75.625 9.625H12.375C10.8539 9.625 9.625 10.8539 9.625 12.375V75.625C9.625 77.1461 10.8539 78.375 12.375 78.375H75.625C77.1461 78.375 78.375 77.1461 78.375 75.625V12.375C78.375 10.8539 77.1461 9.625 75.625 9.625ZM72.1875 72.1875H15.8125V15.8125H72.1875V72.1875Z" fill="#505D68"/>
</svg>
